<svg xmlns="http://www.w3.org/2000/svg" width="1200" height="630" viewBox="0 0 1200 630">
  <defs>
    <radialGradient id="r1" cx="20%" cy="0%" r="75%">
      <stop offset="0" stop-color="#CAA24B" stop-opacity="0.35"/>
      <stop offset="1" stop-color="#0B0B0C" stop-opacity="1"/>
    </radialGradient>
    <radialGradient id="r2" cx="90%" cy="15%" r="60%">
      <stop offset="0" stop-color="#7FC7FF" stop-opacity="0.25"/>
      <stop offset="1" stop-color="#0B0B0C" stop-opacity="0"/>
    </radialGradient>
    <linearGradient id="keys" x1="0" y1="0" x2="1" y2="0">
      <stop offset="0" stop-color="#F6F2EA" stop-opacity="0.16"/>
      <stop offset="1" stop-color="#F6F2EA" stop-opacity="0.06"/>
    </linearGradient>
  </defs>
  <rect width="1200" height="630" fill="url(#r1)"/>
  <rect width="1200" height="630" fill="url(#r2)"/>
  <g opacity="0.65">
    <rect x="740" y="90" width="380" height="450" rx="34" fill="#111214" opacity="0.82"/>
    <g fill="url(#keys)">
      <rect x="790" y="150" width="26" height="330" rx="10"/>
      <rect x="826" y="150" width="26" height="330" rx="10"/>
      <rect x="862" y="150" width="26" height="330" rx="10"/>
      <rect x="898" y="150" width="26" height="330" rx="10"/>
      <rect x="934" y="150" width="26" height="330" rx="10"/>
      <rect x="970" y="150" width="26" height="330" rx="10"/>
      <rect x="1006" y="150" width="26" height="330" rx="10"/>
    </g>
    <g fill="#0B0B0C" opacity="0.55">
      <rect x="812" y="150" width="18" height="190" rx="7"/>
      <rect x="848" y="150" width="18" height="190" rx="7"/>
      <rect x="884" y="150" width="18" height="190" rx="7"/>
      <rect x="920" y="150" width="18" height="190" rx="7"/>
      <rect x="956" y="150" width="18" height="190" rx="7"/>
    </g>
  </g>

  <g fill="#F6F2EA">
    <text x="84" y="240" font-size="68" font-family="Georgia, 'Times New Roman', serif" font-weight="700">Клавир-трио «Элегия»</text>
    <text x="84" y="302" font-size="28" font-family="system-ui, -apple-system, Segoe UI, Roboto, Arial" opacity="0.85">скрипка • виолончель • фортепиано</text>
  </g>
  <g fill="#CAA24B" opacity="0.95">
    <rect x="84" y="340" width="220" height="4" rx="2"/>
  </g>
  <g fill="#F6F2EA" opacity="0.82">
    <text x="84" y="408" font-size="26" font-family="system-ui, -apple-system, Segoe UI, Roboto, Arial">Афиша • программы • медиа • контакты</text>
  </g>
</svg>
